<mxfile host="Electron" modified="2024-02-15T08:26:39.410Z" agent="Mozilla/5.0 (Windows NT 10.0; Win64; x64) AppleWebKit/537.36 (KHTML, like Gecko) draw.io/21.2.8 Chrome/112.0.5615.165 Electron/24.2.0 Safari/537.36" etag="BdZ6DNsTnNLIxZhn8CxF" version="21.2.8" type="device">
  <diagram name="Page-1" id="2XWkQP5S-hDbL94sL5Vg">
    <mxGraphModel dx="2058" dy="1180" grid="1" gridSize="10" guides="1" tooltips="1" connect="1" arrows="1" fold="1" page="1" pageScale="1" pageWidth="3300" pageHeight="4681" background="#999999" math="0" shadow="0">
      <root>
        <mxCell id="0" />
        <mxCell id="1" parent="0" />
        <mxCell id="APLwThIm-aDqV8bCMrbt-1" value="Frame" style="rounded=0;whiteSpace=wrap;html=1;fontSize=25;fillColor=#dae8fc;strokeColor=#6c8ebf;" parent="1" vertex="1">
          <mxGeometry x="1298" y="140" width="650" height="60" as="geometry" />
        </mxCell>
        <mxCell id="x8XpAQeDSNckDKEaIXqY-1" value="" style="shape=image;verticalLabelPosition=bottom;labelBackgroundColor=default;verticalAlign=top;aspect=fixed;imageAspect=0;image=data:image/png,iVBORw0KGgoAAAANSUhEUgAAAo0AAAFmCAYAAAAIxqCRAAAAAXNSR0IArs4c6QAAAARnQU1BAACxjwv8YQUAAAAJcEhZcwAADsMAAA7DAcdvqGQAAC1wSURBVHhe7d0LlBT1ge/xX3fPg+fwEFDxEYZRwGiiCZpdEzWG5aFe1xVDokYXN2fzMndjRPLA4OYaI2IkxyReZIkhmnhCEj0JArpZfKFi4jVRjKKiBwUUhBgBmRlghnl13/pXVc/U9HT3f6Z7Zrpr+vthqqvqX+/q6qof1V1VkZNP+VBCQYmEUgpMUWdd+hkICrBEOU5y4K37Uheid5SNr+9E/Dr6ACu32BTkHcl5ogNr+3GXJtJ5mbzWjrJ0/RgdoTFNEEykpsUehcU8ji55DJqrAkyyAEpjxZbGewmgmHU93PaDfp9oQZYyVHJeQ3mt2u4N7PbVw/DohcaUMJg9LPpNTi2lr5DLcWnyWAkDa/31hQKsoRJ5U9j2UCidD1FFriAzG6o11O/yWjs5Dzxw3hN3STpeXF5r52UMhsdg98jJJ58SiIhufuykI0D6daeW0ksG3esrrRwHzWOKBdK/Cxq+9VMqQvTOsBEVn877eqTFSsqmIGsn54mG670svsX0Ruy+dry4IlmCo2G6Rz7ohEavNSUwpp5d9P58qe3FIo85ynHQ4lsH2fT/+slHuNZtIbCGUEo6H9DQVc5rqP8HDJWULNVDxbeOgmGwozHY7jUbXYKjFxo7B8bUs4sdrcEgaXRu6yRLJ5s8Bs1dcAX0QEHmtSByXNISWUGlsx0A6I6Ow2w/ynmiBZnbfleY1ZPbwH03yY6ObpMfELuEQ/elazcnNJ4cyIiZzi6mnIXs0p6OtYfMchw0jynmoVSWs1SEaO2GbENgu+0bHbv5Aa4gC1oya7ff5bxm83pL+v/9LMbldLv6gdBIhkK/lnzp1F97Pyd98GRvX54SGINBsqy8XEOHDlFFeYUqKisUi8X69AgQnBOkEarV0/8zy9YDoNC8Q21/K8xUcxKiWS0EP8L1DWfUbW1tampqUnNzixoaGtTa0uKUe9NMBsT2V7/c8EJjlsA4fPhwjRg5Qvv2H1JjU4sON7WqpbXN7wHh0PGGd9Zb8SrT+IFSl+2zkfr543PURbZdVLrV1Zv9p8r09iTHMeDevp6snIFgIC5v5mUqL4tpUGW5BjvVmNHDVFtbpwP19c527G3ImYJj5KSTPtieEc0Eki3mO+sxY8Y4JTH9bU+dmlsIisXDe/M83dnQg/0H9caHJNO4gVKX7bOR6bPH56ldT1dRd3dnweHTDWO6ZxtXSbxF3V2ZA8lAXWb7clWUl+nosSNUFkvovff2+KXOpu5u694G7zVGFO0YXTIwmnpCVcOHO00xvb37fQJjUUndY5n2YBWUrizI1t0mn2GBsOjp58TWf38fnMz0+nuaKZKz0N1Z6ens9qT/4Hwk36pgZSTr6QSHxwCS7U0f2JpbWp2st0+tbRH322XvQpeOTNj+6hREvbZgYDSnLcvcr6TNGUaETererzuCw6RWADy2z0Oxfmb6eL68Y0pmtu6p+rr/oHyGNfIdHuhz3f/sm8w3csQINwMGM2FwQ3dCo1Pot3gdpaHDhrq/YeQMIzoOOOkqoJR07Dg75PJ5yDRMT8ZRRHo625n6N6s33Sq2yXe1JacbnH5P5iM43IBhVmpIt0fkzJxx3Lv/oIYMHeK2JzNhe4B0XqPexm7SZEdXc5W0uegFhZL8wKZ+aPkQA/3P7Bv9/WMnvfF5zPRZL5DkoqZb3O4KjiN1POkWM11/2WQad2/Jdbx9PV+5KsZ5KkoDdSX1bLlM9jMZMJkYk19VJ0fj/abRbzE9mUZzWx1zlTQKIXWvWmQHFWBACn7OglWJMDv+5HEgH9nGkW515jvN5PD9+VZ1Z9PItD6T5Zm691S28aWWpevHqoQ+AwNGTm90u8NOaKysrPTG0H4y0R+j0x6ZPHlKMk/63ROa8IEJevXNv7mlmVQNH+xest1T5nY99Qca/TZ0xYcU6H/ZPnf+jrOTkH9O0y1Sqp4uom2cqePrzjx0R3K8vTU+GzO9nk4r0zA9XcdBmebBtj56PM3+WrGFlusKLUZmXjNtdHYnnzBeb739ltMUab+Cur0+yQmNpjH59bSpT5jwAW1+8123PZMfLblZNSfU+G3pJR9+vevdve2B9VD9Pl33zRsUjfY8cA58yY0TQP/j8+dKHm96wnZsCo7P1u9A1tubWOq6TB2/rXu3lMoblmk5kystjOsht3n+4AlH66233g4ERm8dmFr71dNerfsTGDliuE6ecmLW6oOTT3CrGZ/8R80816vGjjmiR9MZmMwbkK4CgDyZ3Ws+u9ie7ops0wqOr9R3/b0tuG7TvW+27t2S84BF5/v/59va8cYL2rXtpTTVJqfbX51+Fvh9F49n1q/Vx//hdL+tK9PtT4+v8dt6S/LbZ6epvcHZGtwzjU6BKUp26M6Zxnt//n917LE1Wv30G4pEE14VM1VcF5x6go46coQOHjzk9jt06FD9/k/b3ebq4Q268t++oliszG1P9crGDRo1aqTfJt1z7290w42L/baBYOB8AIGBJeSfTX+/3q4/Fid1mqmC82Drt1gk5znX+TXDZxq22Dax4Hxa5y3bQoXjzTWBccYFn9Hf/v6eX9LZaCd7bHhsjY4/8SN+SXClFG4ZTShc+uPF+o9rr9czf37eL/Vk65brPHtnGpNfT3vrwNRNk3emMQdm8Egkpu11B/XWgQN6u6FeO5vq9E5LrVpa4k4AdSr/X1Ksonu38Lnk0n/TMRM/7FYDKzACQB9Id2zorWOcGU9vjSss8lneUltXLmviLAqxWMwNjPX1B9JWb7290+2nq8K+qSYMmlBowmHwjGP2wNg3cg6NbfG4Wx97RKUiFa2qa63XnsP79PdG7xE0kZR1PGjUYQ0Z0+C3lapwfLAAhExf7VqC+/FcjptmmGQVFsU2r9nWYbBbpn4y6Um/rnQbWbKsxyMLieJZrtTgaA+MfTPvgZt7+xMwX1F3Y1rJXl77+zvaXvs31bbuV6MOqDly0C1P+NuSd0JTGjryoIYM87r11D+c8VH3a+sHf/8r93cHhmk3zab64/qH3DLDlN984/Xt3cywprtpNt2CkuWmuueuO/zS3mCWOV0FAH0k112M2Zknq6B0x4F0Zegbmd6TYJVOpn4ylfdIKR7Tcl5ZvS4YHPv0DGP7NuK8JH/P6DSbpjy+nvY0OiGxfHCLyge1qKyyWeVO5XLGngyMxpSxx+mEkRP9tuxW3feLTqHPML9zfOnlV92vrI1Tpp7T/hW28e//doVbN8495xNu+SOPPemOy/wu0rTX1tW7gdIwAfTJDX9qH8eJJ0xsn1Z+SuWDBAwUqQfA5E4yhFJ3P7ZFSe1u2pNVd5Ti7q43lzm4vlOr3tKd8VmXqesIdm17MVClu7DEq1AIvbkBdZZzaExyw6JTlVeaKhAanY0wONsnjKpxq+4I/qbxz8+94Jbt31/b6feNwbOJ1ROO90s987/9Xbf+x2f+rO1v7dDPf7HSbX/jzW06ZvzRbrMZ5vNzL+80jn/+X7PcbgAwYHQnNOSq745NA1PyvejL9ySVCYS2UGidl64jOGbiaX51atYKvSf4lXTwq+r+lHdo9AKjFxYrTL3CC43eldjJLTGh5pYWNTYe9tvzYwJj8myiqUwwzEUwnJqq+xfdZPoU2j6ZAIpfiD/H2Q7+vRVSkrv23hpf2IRpuYObMoenHJiVlqwKK/U3jKm/cewvuYdGZx02NTXqH8bU6PRRJ+qjVZN02tCT9OHBJ7vlXi/eijb5MR6Pt1880xvMmUfDfKWceqaxO0zQvGHBdX5broIblLesAIqN7XNa4BTQ0wCW7D9d1VPstgaudO9ttvc7l+0nZNra2jR61Ci/raujjhrn9pNe4T4smS56KURwzDk0mvx30uTj9OVPTdeXPzlTXzz7fH3h7Iv075/4F02ZfKyGDBmqcePGavQRo1VeUe6Gxmi0d1a6OSP40Y982P1a+efLf5zTmcZ//vSVbthMfj1tqu5hLwsUlvkMdvdzmK6/5PDBbgU6YgYnawt+tu7FInXVovcFN+FMVSbZug1wv/zVfdrw2GrneJ/+95d/eXqd208xMfdHXHLLf3YJjEnJ4PjDxd7P8vpaZNLkyf49vRPeRTLOy4QJE7R5a/abe1/7tS/pI6d5F6GkE41G3cqk9uATYDa99IqW/Gipohlu7l38SvgTBxSF1M9gtiTVnc+rGb5An+tss24kZ8vWX3elW8zeGndSb88zusq2uSbXe3f6SZVtmIwG2hudbQUWZllNcAzmKLv85vODNf7NvZ1V4H5jbG7s7a4Opz5pkhManQkkA6OpVXcjNLo3746bG3j3jJluxAmTkUjeP6fsY2ZOU5fOXWsACi7TZzH4mQ3B5zXbDjTb7NuG6+54s/WHcEi+n5ney3TbUU/6tRqIG5FZpp6suGKT33ya0LjdCY3uGnADo/9jQ6eec3Izoc+cLTSPA+xJZYYJR2BM1oMVgOLWD59Xsz9OV+Ui02zaZj/TIibLsg2f7zyjuNjey+D73Z1+4bB9AEtXsae3AmBjAYpfAY5u3Tng9vdsBXdXhdx1sdtEO7MxZNsgwrqxFGCfU4QIjZ2w5wNQBHI5PhXqmMZuc2DJazvq7sbARtN3+nZHQGh0mQ2YjRhAFt3ZTfRkN2L27dn277buRmr35DC24XpTf08PvS+5bXdnG+8iOUBPBgzjBtPjFTMgERoBoCeSB9bUY0h3jyk9DVmZ+g/jcRfFJd12HJTc9jJtg+3SjaS7Zeg9fb9TIDSyEQPIVXL30d3dSD779OCBu++PDUAekhuo+WAEKyPMG29wOUoToREA8tWfx0ECI4petmBV2qEr7KLu/sd/8fZF5jXse6Xk/wZSq1TpygCgG1J3lbZdZ9h3q4BtG+82jr29r7d2MO6du51aIBMGmgfgmcZsG2MyPCYrALAwe8t0VSbp+jUVUGxs22Wmw2SvbM9hPQYP5A+zfdkiJ06a7ERIL1m6T4Vx6uaJMI8++qjbAwAAAErD9Bkz9NZ28xhB7/GB7vNg/GZ+0wgAAAArQiMAAACsCI0AAACwIjQCAADAygmN/qXU/kUz5mIY+/UzAAAAGIiSObAjE3oNnGkEAACAFaERAAAAVoRGAAAAWBEaAQAAYEVoBAAAgBWhEQAAAFaERgAAAFhFzT14zI143PvweC3uHwAAAEqMFwj9TGgavVxo2jjTCAAAACtCIwAAAKwIjQAAALAiNAIAAMCK0AgAAAArQiMAAACsOoVG9+Jq/wprAAAAlCD/FjtJXnOCM40AAACwIzQCAADAitAIAAAAK0IjAAAArAiNAAAAsCI0AgAAwIrQCAAAACsnNCba77/T+a48AAAAKDXtuTARyIjOH2caAQAAYEVoBAAAgBWhEQAAAFaERgAAAFgRGgEAAGBFaAQAAIBV1L+W2lxV7V9R7f0DAABAafEyoBsIO9Kg38yZRgAAAFgRGgEAAGBFaAQAAIAVoREAAABWhEYAAABYERoBAABgRWgEAACAVdS9B497k0b/fjxeIwAAAEqQiYXtcdBpSTZzphEAAABWhEYAAABYERoBAABgRWgEAACAFaERAAAAVoRGAAAAWBEaAQAAYOWGRu/+O+bVvxdP+815AAAAUDLaM6DTELhHo2nnTCMAAACsCI0AAACwIjQCAADAitAIAAAAK0IjAAAArAiNAAAAsHJCo38xNbfZAQAAQBfm9jucaQQAAEA3EBoBAABgRWgEAACAFaERAAAAVoRGAAAAWBEaAQAAYEVoBAAAgFXUuz9jIllzKvfFtAEAAKCkOBnQZEHvz+M3c6YRAAAAVoRGAAAAWBEaAQAAYEVoBAAAgBWhEQAAAFaERgAAAFhF3cup/Zf2S6sBAABQstozYaIjH3KmEQAAAFaERgAAAFgRGgEAAGBFaAQAAIAVoREAAABWhEYAAABYERoBAABg5YbGzvdq5H6NAAAApchkQC8HdjQlcaYRAAAAVoRGAAAAWBEaAQAAYEVoBAAAgBWhEQAAAFaERgAAAFhFlei4sLr9yurOV1gDAACgFCQDofnzan57gjONAAAAsCM0AgAAwCoycWKN+wV1wj0H6T0PZmL1RK1f/7jXBwDkaOHChX4T+sOiRYv8JgDIzbRp/6Rt27cp4vxTxHl1K6fR/CM0AugrJjQSZPoH6xpAb8gWGvl6GgAAAFaERgAAAFgRGgEAAGDlh0bzq0b/1WsEAABAieqIg+aaF6+dM40AAACwIjQCAADAitAIAAAAK0IjAAAArAiNAAAAsCI0AgAAwMp7jKD7+EC5jxI0Vc3Eaq1fv97rAwBy1NNH223cuNFvgjF16lS/yY7HCALoDeYxglu3bfMfH+g+TNCtm2cJcqYRAAAAVoRGAAAAWBEaAQAAYEVoBAAAgBWhEQAAAFaERgAAAFgRGgEAAGAVNfdndCXcOzV6zQAAAChBySzo1N1smCxJcKYRAAAAdoRGAAAAWBEaAYTIQW1adaeWLl3qVst+tlJrn35DdW1+52LW9r6eX/Gfuv2p/X4BAIQLoRFAiMRV98o6PfTsNr2za6fefPFhrVh4pWZf/Qu9ftjvpRvqX1urO360VtsCYTNdWa9ofl+vPbJM1106R9fc9Wfti8f8DgAQLoRGACETUeWUObph8Q90+5336nf3XK0Jm3+vVZsa/O52h15bpzUv7FXCPInfl66sN7z/5G2af/vzOurK/9B5R/XyyAGgHxEaAYRaRdURGl4RUTSZxw5u0qplP9XazYEQ2fCq1vzXcj3w8k4995uluv/5WiUaN2vNsqVadt+TeqJL2UZ5XyLHdeDNx3X3rd/RvGuu1YLFd2v9toaO+0zEd2nDPUu1Yt3L2vLUPbrlm9dq3g136L+3HPJ7kKrOukGr/nC3vjXreFV2DAkAoeOExkTHbsxtYKcGoLhFEgnF4y06XLtVj6y4X9unfEaXnDrE71qnl9Y+qFcO+q2uA3r5wdV6sTah1uYmtcTNzi+ulqZmNR5uVkuasoTatPuhBbp07hI9m5isT848WxMPPaabrvxX3fpMrT/eVr311AP646O/1O3/06hJZ5+l6vpHdPPVC7X2XW9fWjZkmAbx33MAIeHtuZxXPw62tzvYlQEIlURbi3b/YYEuPHeaps26Qj955wx9/gszVV3h95DVKJ151Xxd8bGRSgw+RXPmXaf5V83UzC5lZ2p07QYtW/pXTV5wt5Zff5UuvvDT+tLNd+m2ixNat3yVtrR6Y4xEDmtH08e18Javas5Fc3TNzd/WzMpNWv/8Hq8HABggCI0AQiUSK9f487+n365ZrdWrVurG6Qf0u3mf0/zVuxT3++kNjW/+RZtaT9N5Z40P7CiH6ZRzz1DVjhf1+vteSSJRoeM/dpqOSfY07DjVjJPq6xp7dX4AoNAIjQBCJxEdpKpRR2jcMTU6Y/Y39K1LRumlhzZoVy+mtJaGQ2qODdKgMr/AVz5shAYnmtXcfpV1VBWVFWq/xCVSpsoKrpAGMPAQGgGEXEKJuFO1NKvFtEYrVBlrUl1dk9vV1bBP+xr95m4actSxGt24U9v3+N9D+w7s3qHaquN0XJVfAAAlgtAIIHQi8cOqf3+f3tu9XS88sES3PbBXU2ado+PNHm3wsZoyIa6XH31aO5ud9vh+PXffGr0ayJCVw4YpWveu9jYkFG9tdb9GTi2L1szQRafs0v0/XqmXattMNFXz7id01883atwFF+nUod64AKBUEBoBhIoT6fTeuht12cWzNeeyuZq3/HVNuHqpfnh5tdxvkiPHaNaXL9OxL96qS6dP0/RZc3V3y+k6Y0y0fYc3+vTzdXbZw/rGhTM0+7uPyvw8sUtZrFqf/f5NuqDpPn3tohmadd4snXf5Ym3+yPVa8sUPaZA3KkWjZR23+/FFojHF0tySMWL69a9CBICwiVRPnJhImH2Y82IazL+aiRO1fv16rw8AyNHChQu1aNEiv81u48aNflNm5urpljY/eEViKiuPpf/fb2uD9u2pVXz4WI0dFlNbS6sSsQqVJXtua9T+fQcUGzFGVZV+YboyJ6Q21+/V3oMJDRk9ViM73T/HibBtrYpHypzxdqTEuDOPbU5Zeac06fTb0qJ4cB4spk6d6jfZ9XRdA0A6n5o2Tdu2bVPE/Is4+zCn8mqR5L7WREWf08D/gwEUK3P1dEVFhVdlCoxG2RAdcfR4JzCWOy1RxcpTwlpssEaNGxcIh450Zc6wFVXjNH78kSmB0XB2os78BAOjYco6B0bD6Td1HgCgGPlBsFMedFrYfQEAAMCK0AgAAAArQiMAAACsCI0AAACwIjQCAADAitAIAAAAK+8+s+kurQYAAEBJ8jKh8+rezNvDmUYAAABYRaqrzRNhvJt7u4+GcaqJNRP1BE+EAZAnnlLSf1jXAHqD+0SYrdvMI2C8J8GYf1H3lTONAAAAsCM0AgAAwIrQCAAAACtCIwAAAKy4EAZAn+npxRkbN270m2BMnTrVb7LjQhgAvSHrhTAdd99xY6P7CgAAgNLUJQuac4pOja+nAQAAYEVoBAAAgBWhEQAAAFaERgAAAFgRGgEAAGBFaAQAAIAVoREAAABWaUKjfzMeAAAAlCATBDvCoNeU4EwjAAAA7AiNAELkoDatulNLly51q2U/W6m1T7+huja/cxFKNLytDffeqgVf/5q+fv0S/frP76rZ7wYAYUJoBBAicdW9sk4PPbtN7+zaqTdffFgrFl6p2Vf/Qq8f9nvphvrX1uqOH63VtkDYTFeWt/h2/fraq3XHxgp9eMYsfeLInfrNvCs0f9VOZ0kAIFwIjQBCJqLKKXN0w+If6PY779Xv7rlaEzb/Xqs2Nfjd7Q69tk5rXtirRMQvcKQry19UNVct169/cp0+d+GF+uy1P9QP5h6lTQ882rvhFAD6AaERQKhVVB2h4RURRZNh7+AmrVr2U63dHAiRDa9qzX8t1wMv79Rzv1mq+5+vVaJxs9YsW6pl9z2pJ7qUbdR+d8C4Drz5uO6+9Tuad821WrD4bq3f1tDx8/D4Lm24Z6lWrHtZW566R7d881rNu+EO/feWQ1736Af0j584XhVem6NCY44+QrHmw2rlgkMAIUNoBBA6kURC8XiLDtdu1SMr7tf2KZ/RJacO8bvW6aW1D+qVg36r64BefnC1XqxNqLW5SS1xs/OLq6WpWY2Hm9WSpiyhNu1+aIEunbtEzyYm65Mzz9bEQ4/ppiv/Vbc+U+uPt1VvPfWA/vjoL3X7/zRq0tlnqbr+Ed189UKtfTddKtyvzS+8reEnnawjy/wiAAgJNzS6uzb+1wsgBBJtLdr9hwW68NxpmjbrCv3knTP0+S/MVHXH6bwsRunMq+brio+NVGLwKZoz7zrNv2qmZnYpO1Ojazdo2dK/avKCu7X8+qt08YWf1pduvku3XZzQuuWrtKXVG2Mkclg7mj6uhbd8VXMumqNrbv62ZlZu0vrn93g9tGvWjrWLddszx+pzc8905gQAilAyD5q6UwXjIWcaAYRKJFau8ed/T79ds1qrV63UjdMP6HfzPqf5q3f16sUljW/+RZtaT9N5Z40P7CiH6ZRzz1DVjhf1+vteSSJRoeM/dpqOSfY07DjVjJPq6xo75qftPf3pJ1/Rl1a0ae6dS3TpxG4lXAAoKoRGAKGTiA5S1agjNO6YGp0x+xv61iWj9NJDG7SrF1NjS8MhNccGaVDK18jlw0ZocKJZze0XskRVUVmh9utnImWqrIj5LY6Gzbp33pf0o7fP1W2/WqLLJiW/RgeAcCE0Agi5hBJxp2ppVotpjVaoMtakuromt6urYZ/2NfrN3TTkqGM1unGntu/xv4f2Hdi9Q7VVx+m4Kr8gq316bPEN+sORX9eyJXP14Sp2uQDCiz0YgNCJxA+r/v19em/3dr3wwBLd9sBeTZl1jo43e7TBx2rKhLhefvRp7TR30Y7v13P3rdGrgQxZOWyYonXvam9DQvHWVvdr5NSyaM0MXXTKLt3/45V6qbbNRFM1735Cd/18o8ZdcJFOHeqNK5vErsd1/5+q9E//cqoGHapXfX1H1dDCD8kBhAuhEUCoOJFO7627UZddPFtzLpurectf14Srl+qHl1fL/SY5coxmffkyHfvirbp0+jRNnzVXd7ecrjPGRNt3eKNPP19nlz2sb1w4Q7O/+6jMzxO7lMWq9dnv36QLmu7T1y6aoVnnzdJ5ly/W5o9cryVf/JAGeaNSNFrWcbsfXyQaU8wpa9n3rt5v2KwV/36+ZsyY0V5Nn36pbvtzp8u7AaDoRSZUT0w4zK+53f9Jm+aaiTV64on1fi8AkJuFCxdq0aJFfpvdxo0b/abMzNXTLW3+WbpITGXlsfT/+21t0L49tYoPH6uxw2Jqa2lVIlahsmTPbY3av++AYiPGqKrSL0xX5oTU5vq92nswoSGjx2rkoODUnAjb1qp4pMwZb0dyjDvz2OaUlatNza3pf2gZLQvMSwZTp071m+x6uq4BIJ1PfWqatm7bqoj5F3H2a05l6qbRsssCgOJirp6uqKjwqkyB0SgboiOOHu8ExnKnJapYeUpIiw3WqHHjAuHQka7MGbaiapzGjz8yJTAaEUWd+QkGRsOUlZuyaFnHvKZUtsAIAMWmfbfl/r/dvPAzGwAAgNLlZ8HUSMj/dQEAAGBFaAQAAIAVoREAAABWhEYAAABYERoBAABgRWgEAACAlRMaO+6zw912AAAA0DkTOm3OX2RCdbX7RBjvoTDui2pqeCIMgPzxlJL+w7oG0BvcJ8Js3Rp4Eoz3NBjnla+nAQAAYEdoBAAAgBWhEQAAAFaERgAAAFhxIQyAPtPTizM2btzoN8GYOnWq32THhTAAegMXwgAAACAv0Y4b8bQ3AAAAoCQF86BpNt9Ce22caQQAAIAVoREAAABWhEYAAABYERoBAABgRWgEAACAFaERAAAAVhlCI7ffAQAAKF2ds6Bp40wjAAAArAiNAELkoDatulNLly51q2U/W6m1T7+huja/c9FJqGHn/9N9P/mevn3tNZp/08/0+PYGvssBEEqERgAhElfdK+v00LPb9M6unXrzxYe1YuGVmn31L/T6Yb+Xbqh/ba3u+NFabQuEzXRl+durJ366Qi9ETtTHp5+rk1qf1KKrvqyfvtLgdweA8CA0AgiZiCqnzNENi3+g2++8V7+752pN2Px7rdrU/SB26LV1WvPCXiUifoEjXVn+xuj8m1boB9d8Tv9y4SX6wo236aun7NIjD7+uRr8PAAgLQiOAUKuoOkLDKyKKJsPewU1ateynWrs5ECIbXtWa/1quB17eqed+s1T3P1+rRONmrVm2VMvue1JPdCnbqP3ugHEdePNx3X3rdzTvmmu1YPHdWr8t8PVyfJc23LNUK9a9rC1P3aNbvnmt5t1wh/57yyG/B2e+2mfMES3XoMoKDRo6SGV+EQCEBaERQOhEEgnF4y06XLtVj6y4X9unfEaXnDrE71qnl9Y+qFcO+q2uA3r5wdV6sTah1uYmtcTNzi+ulqZmNR5uVkuasoTatPuhBbp07hI9m5isT848WxMPPaabrvxX3fpMrT/eVr311AP646O/1O3/06hJZ5+l6vpHdPPVC7X23WS0TCiRiKutuV7b1v1U926ZpE9fMFnlflcACAtCI4BQSbS1aPcfFujCc6dp2qwr9JN3ztDnvzBT1RV+D1mN0plXzdcVHxupxOBTNGfedZp/1UzN7FJ2pkbXbtCypX/V5AV3a/n1V+niCz+tL918l267OKF1y1dpS6s3xkjksHY0fVwLb/mq5lw0R9fc/G3NrNyk9c/v8Xr4+2p9fcYndc4552n++gm6ZunNmn18zOsGACESdf8vbF78hvZGAChCkVi5xp//Pf12zWqtXrVSN04/oN/N+5zmr96luN9Pb2h88y/a1HqazjtrfOB/18N0yrlnqGrHi3r9fa8kkajQ8R87Tcckexp2nGrGSfV1jd78jDlfi1Y9qDWrV+o/z35Pv/jKHH3t/rfkZ04AKCpeDgwkQacx2caZRgChk4gOUtWoIzTumBqdMfsb+tYlo/TSQxu0qxdTY0vDITXHBmlQyo8Py4eN0OBEs5rbr7KOqqKyQu2/XIyUqbIicCbRGcfwqpEac1S1PvrP1+n7X5mk1367Sq80+d0BICQIjQBCzvk/cdypWprVYlqjFaqMNamuLpDKGvZpXw8vVx5y1LEa3bhT2/d0Pid4YPcO1VYdp+Oq/IIeiahy6FBFGw+qgVONAEKG0AggdCLxw6p/f5/e271dLzywRLc9sFdTZp2j480ebfCxmjIhrpcffVo7m532+H49d98avRrIkJXDhila9672NiQUb211v0ZOLYvWzNBFp+zS/T9eqZdq29yva5p3P6G7fr5R4y64SKcO9caVTduO9Vr11A41uGdAneHfe1YrVz6nYWf9k07uxvAAUEwIjQBCxYl0em/djbrs4tmac9lczVv+uiZcvVQ/vLzau41N5BjN+vJlOvbFW3Xp9GmaPmuu7m45XWeMibbv8Eaffr7OLntY37hwhmZ/91GZnyd2KYtV67Pfv0kXNN2nr100Q7POm6XzLl+szR+5Xku++CEN8kalaLSs43Y/vkg0pphTFonU6o8/uFKzps/U+bOma/rs7+jp4/+3lsz7hEb4/QJAWEQ+MKHa+Q+0+TP/j3YbVVMzUU8+8YTfCwDkZuHChVq0aJHfZrdx40a/KTNz9XRLm/+z7EhMZeWx9P/7bW3Qvj21ig8fq7HDYmpraVUiVqGyZM9tjdq/74BiI8aoqtIvTFfmhNTm+r3aezChIaPHauSg4NScCNvWqnikzBlvR3KMO/PY5pSVm7J4sw7V1aquMd3w2U2dOtVvsuvpugaAdM791Ke0detW5z+9Ea8yv9j2m7u/9wKAImCunq6oqPCqTIHRKBuiI44e7wRGc0fEqGLlgcBoxAZr1LhxgXDoSFfmDFtRNU7jxx+ZJvA5O1FnfoKB0TBlbmB0Wyo0dFSm4QEgPNw9WODCakfnNgAAAJQYEwedKpgK+W8vAAAArAiNAAAAsCI0AgAAwIrQCAAAACtCIwAAAKwIjQAAALAiNAIAAMCq8xNh3KfC8EQYAL2Dp5T0H9Y1gN7Q6YkwgafB8EQYAAAAdAuhEQAAAFaERgAAAFgRGgEAAGBFaAQAAIAVoREAAABWbmg0t9np0LkNAAAA4EwjAAAArAiNAAAAsCI0AgAAwMp9jKB5fGD7owSdfzU1NTxGEEDezKPt0H94jCCAfGV7jCChEQAAAC6ePQ0AAIC8EBoBAABgRWgEAABAB3PL7i637U4QGgEAAGBHaAQAAIAVoREAAABWhEYAAABYERoBAABgRWgEAACAlRMavWuq26+s7nKJNQAAAEpNaiTkTCMAAACsCI0AAACwIjQCAADAitAIAAAAK0IjAAAArAiNAAAAsCI0AgAAwMoPjdycEQAAAKlMRnQq548zjQAAALAiNAIAAMCK0AgAAAArQiMAAACsCI0AAACwIjQCAADAitAIAAAAK0IjAAAArAiNAAAAsCI0AgAAwIrQCAAAACtCIwAAAKwIjQAAALAiNAIAAMCK0AgAAIAOEb/u8lucGqERAAAAVoRGAAAAWBEaAQAAYEVoBAAAgBWhEQAAAFaERgAAAFgRGgEAAGAVCI0Jvw4AAICSlS4SOmWcaQQAAIAVoREAAABWhEYAAABYERoBAABgRWgEAACAFaERAAAAVoHQGOlUAwAAQKnruP8OZxoBAABgRWgEAACAFaERAAAAVoRGAAAAWBEaAQAAYEVoBAAAgBWhEQAAAFaERgAAAHTIcM9uQiMAAACsCI0AAACwIjQCAADAitAIAAAAK0IjAAAArAiNAAAAsCI0AgAAoAvvzjsd998hNAIAAMCK0AgAAAArQiMAAACsCI0AAACwIjQCAADAitAIAAAAK0IjAAAArJzQ2HH/HQAAAKAzLytyphEAAABWhEYAAABYERoBAABgRWgEAACAFaERAAAAVoRGAAAAWPmhMeJdTM3ddwAAAOBrj4ZOA2caAQAAYEVoBAAAgBWhEQAAAFZpQqP/+0YAAACUJhMGUwKhGxrdMpIiAABASfOyYrpQGAmcaUx4NdNba1ub9uzZ4xUAAABgwDPZr7W1zW/ryguNXqxMvqjpcJO2vPGG2wwAAICBz2S/w02H/Tb/bKNT85sUTTYYyeam5ia9sWWL3wYAAICBzmS/5qZmt9nLhH4y9GvR9qQY6HDwwEGtXPlrvfPOO14ZAAAABiyT+Uz2O3jwYHsk9Hgt5jXq1fyufq2lpUXvvvuult55p1cAAACAActkPpP9TAZ0OZnQj4UOryU2ctSoG91Wt0tHZ/Od9r69+7R161ZNmTJFVVVVfhcAAAAMBOYM4y23LNb6J9Zr3759blnEhEKncmtuYPSbJ1RPTCjh/Jl/5grqYLNjxIgqHXXUUbryiit04oknatKkSRo7dqzXEQAAAKFirpLesmWL3njjDf1q5Ur3DGN9Xb3XsVNQ9MKiW2KKqp3QmAyJCS81dgmP5eVlGj5suCoqKzSocpBisajTxe01i6wds8p5yNwnmYf+n2i4FrMgc9vvSmTTc5TG+1kY7p554CvAYpbImnXkuKQl8570/1S9wNXfskzU6WS6mtvqNDUdVlNzs/sbxpaWVi8Uuj34AbG92Wt3S6onOqHRHAfaQ6LTYv78du8vUO69tNczcbvnKsdBCzHNfOQ8vznPa+4LWYDVE673JGxKZDFh4R4IkIl70OxveUwy90HDs5yFeE/cr2r7Wx6TzLqOnE5udz8Ies1e3ftKOlkW7N7RnCY0mrGautPg/nVu7lLPwBtpP8tjktmWJauCLGYJzGs+CjDJfBRkHQEF4h6ESkGOi5nf2inIRHNSkO0g59WTx7wW2TTd8bp/wbrzGiwz7clyM4zb0W+unljjHLPMYcs5cJm/Ls2OYJn55xW6f5n4Q+Ymx0FLZZq5ymtec1WASeYz0ZDNLvpIIT4r3i4ZGRVg9eQ3yRyHDtFmUJBtNo9J5jy/A2mabienD6fu9tdeD5Z5zW6baXYb/e4TndBodpBuEPTDYbDZ++uop551zMTt3t/ymGTO81uQxSyBec1HASaZz0QLMrulIkwr190zD3yFWcwCTLUgk+znieYxuX6fVyPHSeY1r4WYZjZ+COzyVbTbzWvP+jW1Fxqdfav36gVGt+40uH9+3Wn3Opl6slsW3ohy4k+pf+U4ybzmtZ8XM0zzmo+CbD/5CNns5q5kFrSfOTvzUhCyxXQPsv2tnycZtmXMeX5DNs1sA7tdnBd3vjoFws5lbptpdhsDZRNrnNDo7sudQ62p++GwU4j0y7y60+T+efVM/CFyk+OgeU0zV3ktZj/Pb0FWT7jek1wVZDnRdwrxdro7ZWTiH77CowCz2+/rKGzLmOOgBdn2vJSWk6xDOh3d5TF/7jT8pQsGQ9McKHPb/DInNJ7gHO+8Q56fHv26W2xavAOi+5emnkmWTjZZx5tNHtPMVc7zmofk+9SvCjDJXBXiPQnT+imUgrwvJcDfvSObAqyigrwvIdoUvMDSv3J+T/Ka1dwG7qtJegEwte6vmZSQ6BUFu0n/H7K5Nvvhsh+3AAAAAElFTkSuQmCC;" vertex="1" parent="1">
          <mxGeometry x="1298" y="210" width="653" height="358" as="geometry" />
        </mxCell>
      </root>
    </mxGraphModel>
  </diagram>
</mxfile>
